<?xml version="1.0" standalone="no"?>
<!DOCTYPE svg PUBLIC "-//W3C//DTD SVG 20010904//EN"
 "http://www.w3.org/TR/2001/REC-SVG-20010904/DTD/svg10.dtd">
<svg version="1.0" xmlns="http://www.w3.org/2000/svg"
 width="2200.000000pt" height="4067.000000pt" viewBox="0 0 2200.000000 4067.000000"
 preserveAspectRatio="xMidYMid meet">

<g transform="translate(0.000000,4067.000000) scale(0.100000,-0.100000)"
fill="#ffffff" stroke="none">
<path d="M11970 40660 c-31 -5 -110 -26 -176 -48 -152 -50 -205 -73 -489 -214
-99 -48 -187 -93 -195 -98 -30 -19 -172 -100 -175 -100 -19 0 -234 -157 -280
-204 -49 -50 -157 -212 -174 -260 -2 -6 -13 -33 -26 -61 -12 -27 -27 -66 -34
-85 -8 -19 -20 -49 -27 -67 -8 -17 -14 -40 -14 -50 0 -10 -4 -23 -9 -28 -13
-14 -76 -280 -94 -400 -21 -129 -35 -308 -42 -515 -7 -190 -12 -240 -26 -295
-16 -59 -44 -85 -94 -85 -122 0 -219 -185 -299 -570 -76 -369 -26 -655 142
-812 58 -54 75 -64 138 -78 51 -12 128 0 169 24 11 7 41 20 67 30 47 17 49 17
80 -3 39 -24 55 -47 74 -110 22 -73 51 -290 64 -481 17 -239 5 -280 -82 -280
-72 -1 -255 -61 -368 -123 -202 -109 -454 -288 -691 -491 -220 -189 -341 -285
-427 -340 -134 -87 -251 -133 -412 -161 -430 -76 -569 -142 -814 -390 -207
-209 -351 -409 -506 -705 -22 -42 -80 -169 -80 -176 0 -3 -8 -24 -19 -47 -49
-109 -124 -348 -155 -492 -8 -38 -21 -101 -30 -140 -8 -38 -18 -97 -22 -130
-4 -33 -9 -71 -11 -85 -28 -160 -27 -666 2 -850 34 -223 55 -328 90 -455 7
-27 20 -75 28 -105 8 -30 27 -105 43 -167 l28 -111 -54 -104 c-379 -737 -385
-754 -400 -1063 -11 -230 -35 -416 -76 -580 -104 -420 -274 -695 -429 -695
-98 0 -213 126 -269 294 -16 45 -15 52 1 95 9 25 28 63 41 85 69 112 67 243
-5 294 -45 32 -130 52 -218 52 -79 0 -170 -16 -340 -58 -185 -47 -241 -40
-463 60 -35 15 -66 28 -69 28 -3 0 -19 7 -36 15 -45 20 -225 70 -337 93 -96
20 -230 38 -489 67 -229 26 -273 51 -356 205 -98 180 -181 281 -242 296 -64
16 -146 -2 -252 -57 -202 -104 -277 -202 -306 -404 -21 -144 -40 -203 -78
-242 -28 -30 -37 -33 -88 -33 -52 0 -97 14 -164 53 -20 12 -87 59 -202 144
-32 24 -61 43 -64 43 -6 0 -96 -67 -248 -183 -129 -99 -270 -249 -310 -327
-26 -53 -31 -75 -31 -134 0 -61 5 -82 35 -145 50 -104 48 -147 -7 -208 -68
-73 -266 -216 -379 -274 -123 -63 -268 -185 -296 -249 -26 -61 -42 -159 -44
-264 -2 -114 14 -169 54 -187 46 -21 57 -83 38 -200 -42 -255 -70 -465 -76
-579 -3 -47 -8 -134 -11 -194 -10 -159 20 -456 63 -621 33 -128 70 -253 91
-305 6 -14 20 -50 32 -80 11 -30 25 -64 30 -75 5 -11 18 -40 29 -65 78 -180
133 -281 230 -423 222 -324 567 -670 871 -872 80 -52 183 -114 230 -137 84
-40 172 -78 183 -78 7 0 23 -6 38 -13 28 -15 222 -77 314 -100 33 -9 87 -22
120 -31 33 -8 96 -23 140 -31 44 -9 100 -20 125 -25 162 -34 658 -76 776 -67
38 3 105 8 149 11 146 11 404 65 513 107 13 5 52 19 85 30 34 11 121 49 192
84 293 141 499 290 750 540 291 290 457 530 697 1006 170 335 187 360 276 399
55 24 159 26 288 6 370 -60 454 -57 618 25 210 104 488 443 879 1071 10 15 29
35 42 44 24 16 27 15 46 -2 43 -39 60 -83 119 -309 47 -182 83 -272 138 -347
73 -99 115 -189 146 -316 20 -81 20 -95 -3 -140 -27 -52 -115 -130 -264 -236
-168 -118 -346 -269 -427 -362 -181 -207 -239 -377 -275 -809 -9 -104 -25
-231 -35 -282 -18 -88 -68 -215 -90 -228 -34 -21 -185 -293 -252 -455 -6 -14
-17 -38 -24 -55 -7 -16 -29 -73 -49 -125 -20 -52 -40 -104 -45 -115 -49 -110
-128 -409 -136 -515 -12 -147 -61 -262 -163 -380 -51 -59 -118 -158 -171 -255
-33 -58 -178 -349 -205 -410 -7 -16 -27 -61 -44 -98 -17 -37 -31 -70 -31 -73
0 -3 -6 -20 -14 -37 -36 -82 -87 -212 -106 -267 -5 -14 -18 -50 -30 -80 -21
-53 -68 -197 -95 -290 -24 -82 -74 -210 -114 -293 -50 -105 -64 -139 -86 -207
-9 -30 -24 -70 -31 -88 -8 -18 -14 -37 -14 -42 0 -28 -68 -150 -103 -188 -33
-34 -48 -42 -76 -42 -55 0 -126 42 -257 151 -181 152 -274 188 -336 132 -35
-32 -83 -126 -102 -201 -21 -81 -19 -215 4 -307 22 -85 72 -249 86 -275 7 -14
22 -50 34 -80 11 -30 25 -64 30 -75 39 -88 93 -202 184 -390 168 -345 171
-352 207 -477 23 -82 25 -231 5 -363 -29 -188 -39 -460 -32 -822 11 -507 8
-605 -30 -878 -32 -234 -98 -477 -174 -641 -17 -35 -30 -65 -30 -68 0 -2 -14
-35 -31 -73 -16 -37 -34 -77 -39 -88 -11 -25 -65 -146 -90 -200 -10 -22 -32
-70 -49 -108 -17 -37 -31 -69 -31 -72 0 -2 -16 -39 -36 -82 -20 -43 -46 -100
-58 -128 -13 -27 -35 -75 -48 -105 -14 -30 -37 -82 -51 -115 -49 -117 -159
-293 -270 -434 -34 -42 -129 -146 -211 -231 -270 -277 -464 -550 -653 -918
-65 -127 -162 -342 -199 -442 -7 -19 -22 -60 -34 -90 -30 -76 -144 -419 -170
-510 -11 -41 -27 -97 -35 -124 -8 -26 -15 -55 -15 -63 0 -9 -7 -36 -15 -62 -8
-25 -21 -73 -29 -106 -15 -62 -32 -131 -61 -245 -9 -36 -22 -87 -30 -115 -14
-54 -38 -145 -61 -237 -8 -32 -21 -84 -29 -115 -8 -32 -37 -152 -65 -268 -28
-115 -55 -226 -60 -245 -15 -55 -71 -281 -80 -320 -4 -19 -13 -55 -19 -80 -16
-57 -35 -135 -56 -225 -17 -74 -38 -157 -60 -240 -7 -27 -20 -81 -29 -120 -27
-115 -231 -928 -276 -1100 -23 -88 -46 -176 -50 -195 -4 -19 -17 -71 -30 -115
-21 -76 -50 -185 -105 -390 -13 -49 -33 -124 -45 -165 -12 -41 -25 -91 -30
-110 -23 -93 -69 -244 -131 -434 -38 -115 -78 -206 -103 -236 -26 -30 -76
-151 -76 -183 0 -99 -73 -495 -157 -857 -8 -36 -19 -83 -24 -105 -4 -22 -31
-130 -60 -240 -67 -263 -75 -295 -87 -330 -6 -16 -22 -70 -37 -120 -59 -194
-143 -362 -214 -430 -31 -28 -36 -30 -146 -35 -102 -5 -116 -8 -139 -29 -28
-27 -45 -70 -71 -181 -21 -95 -45 -160 -89 -246 -49 -97 -107 -274 -137 -414
-12 -58 -46 -179 -80 -285 -17 -55 -37 -120 -45 -145 -11 -39 -86 -256 -130
-375 -22 -60 -112 -333 -128 -390 -8 -27 -20 -68 -26 -90 -6 -22 -15 -80 -20
-130 -10 -111 -35 -170 -99 -238 -65 -70 -127 -167 -195 -312 -60 -125 -63
-132 -91 -205 -9 -25 -23 -58 -30 -75 -37 -88 -115 -358 -115 -401 0 -12 -7
-29 -15 -38 -21 -21 -22 -281 -1 -289 7 -3 16 -21 20 -41 25 -131 139 -253
296 -316 144 -58 208 -74 410 -105 139 -20 178 -25 250 -31 36 -3 99 -9 140
-14 41 -6 199 -15 350 -21 151 -6 280 -15 286 -20 14 -11 1009 -12 1031 0 10
5 32 15 50 21 23 9 37 24 55 63 23 51 23 58 22 372 0 262 -3 340 -18 427 -20
115 -18 181 7 283 15 60 54 170 83 235 15 34 25 55 111 240 22 47 46 102 52
123 7 20 17 39 22 42 5 4 9 13 9 21 0 8 15 53 33 102 89 231 121 377 142 628
18 228 53 341 151 490 21 32 41 64 44 69 3 6 17 28 31 50 46 72 69 140 69 202
0 66 -7 80 -86 164 -29 31 -56 69 -60 83 -6 26 -3 87 12 253 8 92 -12 162 -65
218 -110 116 -107 166 19 311 244 280 289 343 375 520 68 142 101 276 83 341
-26 99 -98 97 -98 -2 0 -76 -89 -114 -140 -60 -21 22 -22 31 -17 93 5 63 11
85 54 197 29 74 59 143 113 260 105 225 161 387 186 540 32 193 85 320 308
727 17 31 43 79 58 106 15 27 41 76 59 108 17 32 47 88 67 124 19 36 74 137
122 225 81 149 105 193 198 365 19 36 45 83 57 105 12 22 38 69 58 105 72 134
111 207 140 260 16 30 97 188 179 350 187 368 313 578 473 790 135 178 332
573 480 960 20 52 40 104 44 115 5 11 14 33 20 50 34 82 161 476 220 680 62
212 117 431 155 610 8 39 20 95 26 125 11 55 34 185 50 290 8 53 31 134 49
175 61 142 130 256 324 536 28 42 57 84 64 95 204 327 344 570 460 799 36 72
69 135 73 140 4 6 51 94 104 197 53 103 110 210 126 238 17 28 30 53 30 55 0
2 19 36 43 77 24 40 47 80 51 88 8 17 21 39 59 97 15 24 27 45 27 49 0 3 44
71 97 152 69 102 131 180 209 261 61 64 146 163 190 221 151 199 370 545 457
722 68 138 157 215 227 199 128 -31 341 -171 490 -323 126 -127 168 -235 145
-365 -7 -37 -18 -84 -25 -103 -16 -47 -98 -215 -130 -265 -47 -74 -50 -80 -60
-100 -6 -11 -28 -47 -49 -80 -178 -272 -373 -632 -450 -830 -18 -44 -36 -89
-41 -100 -13 -27 -39 -106 -57 -174 -32 -119 -44 -191 -52 -318 -5 -73 -11
-136 -14 -140 -3 -5 -10 -44 -16 -88 -6 -44 -15 -100 -20 -125 -58 -280 -71
-339 -86 -390 -7 -25 -18 -65 -24 -90 -83 -360 -111 -650 -111 -1160 0 -826
47 -911 690 -1233 355 -178 455 -206 755 -216 172 -6 206 -10 246 -28 63 -28
77 -62 61 -154 -11 -64 -55 -206 -102 -329 -12 -30 -25 -66 -30 -80 -5 -14
-18 -50 -30 -80 -23 -60 -44 -125 -80 -240 -12 -41 -30 -100 -40 -130 -15 -48
-60 -228 -105 -415 -76 -326 -135 -735 -135 -951 0 -86 21 -245 46 -347 53
-215 174 -413 322 -525 120 -91 232 -137 405 -168 163 -28 305 -9 522 70 52
19 255 123 276 142 8 8 19 14 23 14 9 0 44 25 206 145 214 159 516 469 721
740 71 93 221 320 278 420 72 126 193 374 231 475 17 47 38 97 46 112 8 14 14
31 14 38 0 25 161 342 219 430 73 111 131 227 163 325 20 63 23 89 23 255 -1
142 -5 203 -18 260 -34 140 -76 315 -94 385 -14 53 -18 106 -17 220 1 146 5
182 50 375 33 142 94 381 119 470 7 25 16 59 19 75 3 17 15 62 26 100 19 63
35 125 59 225 5 19 18 71 31 115 35 127 80 313 96 395 33 177 36 209 31 370
-4 152 -7 171 -34 245 -46 123 -124 267 -228 420 -109 161 -145 245 -145 339
0 68 28 159 69 226 17 27 31 53 31 56 0 5 133 185 178 239 26 32 91 105 248
281 110 122 758 807 794 839 13 11 97 101 188 200 91 99 186 203 212 230 132
142 354 411 413 500 51 77 95 187 126 316 25 105 51 252 51 292 0 37 25 173
46 247 25 89 59 162 103 223 14 20 48 67 75 104 63 87 95 158 106 231 7 52 56
217 80 267 5 11 34 80 65 154 32 74 61 142 65 150 5 9 25 50 45 91 21 41 42
84 49 95 58 102 82 138 126 190 51 60 67 83 133 185 54 84 156 292 178 360 4
14 17 50 29 80 34 87 57 178 89 345 6 28 27 124 47 215 20 91 42 194 50 230 7
36 20 94 28 130 15 67 64 288 97 445 11 50 24 117 30 149 5 33 13 64 16 69 3
5 9 34 13 65 4 32 19 122 34 202 41 224 54 301 61 355 3 28 10 70 15 95 13 60
48 315 85 615 35 285 47 374 60 475 8 58 17 140 21 183 8 93 17 103 126 137
40 12 111 35 158 50 47 16 139 45 205 65 66 21 181 57 255 81 74 24 160 51
190 60 30 9 73 22 95 29 22 7 67 21 100 30 33 10 78 23 100 30 22 7 69 20 105
30 36 10 85 23 110 31 25 7 70 16 100 20 97 12 189 71 365 234 163 150 495
360 865 546 58 29 132 64 165 79 33 14 78 35 100 45 59 27 184 67 232 75 120
19 348 203 386 310 40 116 51 467 24 790 -16 193 -28 257 -66 355 -25 63 -51
140 -76 225 -10 33 -24 78 -30 100 -25 81 -65 227 -90 325 -10 36 -23 83 -30
105 -7 22 -20 69 -30 105 -9 36 -23 83 -30 105 -7 22 -22 72 -33 110 -61 203
-85 284 -97 320 -7 22 -19 63 -28 90 -72 234 -111 355 -121 385 -27 73 -38
106 -46 135 -5 17 -14 46 -21 65 -6 19 -17 51 -24 70 -7 19 -18 51 -24 70 -7
19 -16 49 -21 65 -5 17 -27 82 -50 145 -23 63 -45 126 -50 140 -18 59 -105
270 -135 331 -58 115 -228 382 -600 944 -374 564 -455 687 -455 690 0 2 -36
57 -79 123 -184 277 -412 684 -491 877 -34 82 -78 202 -116 315 -53 161 -103
294 -160 428 -8 17 -20 47 -28 65 -35 82 -104 216 -137 266 -39 60 -142 186
-217 266 -26 28 -133 142 -237 255 -261 281 -1080 1106 -1300 1308 -99 91
-206 189 -237 218 -59 54 -214 173 -303 234 -212 142 -242 160 -390 225 -38
17 -193 76 -260 100 -27 9 -59 21 -70 26 -25 11 -462 156 -530 175 -73 21
-188 53 -325 91 -187 51 -329 73 -400 62 -80 -13 -118 8 -147 81 -36 92 -58
204 -84 423 -13 116 -13 118 37 262 8 23 14 48 14 58 0 9 13 31 29 49 l28 32
46 -27 c36 -21 58 -27 106 -27 58 0 62 2 80 31 60 98 60 674 0 1109 -24 175
-42 241 -80 298 -41 60 -54 90 -68 145 -18 74 -51 332 -51 401 0 117 -45 439
-84 606 -72 309 -223 567 -480 823 -87 86 -286 253 -316 265 -8 3 -31 18 -51
34 -20 15 -39 28 -42 28 -3 0 -25 13 -49 29 -51 34 -275 143 -338 166 -220 77
-270 87 -465 90 -99 2 -205 0 -235 -5z m5985 -12868 c11 -9 46 -48 77 -87 88
-110 211 -221 409 -370 201 -152 302 -255 417 -426 88 -131 113 -183 153 -321
24 -84 24 -131 0 -184 -18 -40 -76 -94 -100 -94 -7 0 -25 -6 -39 -14 -15 -8
-45 -21 -67 -29 -22 -9 -71 -28 -109 -42 -93 -36 -318 -115 -501 -176 -82 -27
-171 -56 -197 -65 -25 -8 -59 -14 -75 -12 -26 3 -28 7 -35 63 -4 33 -12 222
-17 420 -6 198 -16 500 -22 670 -14 385 -2 631 33 673 15 17 49 14 73 -6z"/>
</g>
</svg>
